<?xml version="1.0" encoding="iso-8859-1"?>
<!-- Generator: Adobe Illustrator 16.0.0, SVG Export Plug-In . SVG Version: 6.00 Build 0)  -->
<!DOCTYPE svg PUBLIC "-//W3C//DTD SVG 1.1//EN" "http://www.w3.org/Graphics/SVG/1.1/DTD/svg11.dtd">
<svg version="1.1" id="Capa_1" xmlns="http://www.w3.org/2000/svg" xmlns:xlink="http://www.w3.org/1999/xlink" x="0px" y="0px"
	 width="477.71px" height="477.71px" viewBox="0 0 477.71 477.71" style="enable-background:new 0 0 477.71 477.71;"
	 xml:space="preserve">
	 <defs>
    <style type="text/css"><![CDATA[
      path {
        fill: #6b8182;
        stroke: #6b8182;
        stroke-width: 1;
      }
    ]]></style>
  </defs>

<g>
	<path d="M419.953,152.332c-28.059,0-51.426,20.024-56.633,46.569l-59.083-1.39c-3.787-63.273-56.279-113.423-120.499-113.423
		c-26.673,0-51.316,8.667-71.298,23.316l-10.018-11.683c8.164-9.957,13.072-22.692,13.072-36.573
		c0-31.891-25.858-57.743-57.753-57.748C25.853,1.401,0,27.253,0,59.149c0,31.894,25.847,57.746,57.741,57.746
		c10.905,0,21.063-3.075,29.764-8.326l10.062,11.727c-21.372,21.788-34.568,51.612-34.568,84.54
		c0,55.347,37.257,101.969,88.055,116.223l-12.959,42.419c-5.487-1.722-11.309-2.665-17.355-2.665
		c-31.893,0-57.748,25.857-57.748,57.752c0,31.891,25.849,57.74,57.748,57.745c31.888,0,57.749-25.854,57.749-57.745
		c0-18.676-8.907-35.229-22.653-45.79l14.65-47.946c4.351,0.481,8.764,0.745,13.248,0.745c62.507,0,113.926-47.513,120.116-108.384
		l59.056,1.39c4.124,27.848,28.058,49.237,57.049,49.237c31.902,0,57.757-25.847,57.757-57.74
		C477.71,178.179,451.855,152.332,419.953,152.332z M120.745,463.434c-24.745,0-44.876-20.137-44.876-44.882
		c0-2.603,2.106-4.703,4.706-4.703c2.599,0,4.707,2.101,4.707,4.703c0,19.558,15.91,35.459,35.463,35.459
		c2.6,0,4.708,2.112,4.715,4.712C125.46,461.33,123.345,463.434,120.745,463.434z M53.04,18.982c0-2.599,2.108-4.711,4.708-4.711
		c24.745,0.005,44.877,20.139,44.877,44.878c0,2.605-2.107,4.711-4.707,4.711c-2.602,0-4.708-2.106-4.708-4.711
		c0-19.552-15.908-35.458-35.462-35.458C55.147,23.691,53.04,21.584,53.04,18.982z M109.59,204.828c0,5.442-4.405,9.847-9.841,9.847
		c-5.439,0-9.845-4.405-9.845-9.847c0-51.735,42.099-93.831,93.834-93.831c5.435,0,9.844,4.402,9.844,9.844s-4.41,9.844-9.844,9.844
		C142.853,130.679,109.59,163.941,109.59,204.828z M460.129,214.781c-2.604,0-4.706-2.106-4.706-4.705
		c0-19.552-15.912-35.465-35.47-35.465c-2.594,0-4.704-2.107-4.704-4.708c0-2.6,2.11-4.711,4.704-4.711
		c24.745,0.005,44.888,20.14,44.888,44.885C464.841,212.674,462.729,214.781,460.129,214.781z"/>
</g>
</svg>
